<?xml version="1.0" standalone="no"?>
<!DOCTYPE svg PUBLIC "-//W3C//DTD SVG 20010904//EN"
 "http://www.w3.org/TR/2001/REC-SVG-20010904/DTD/svg10.dtd">
<svg version="1.0" xmlns="http://www.w3.org/2000/svg"
 width="366.000000pt" height="366.000000pt" viewBox="0 0 366.000000 366.000000"
 preserveAspectRatio="xMidYMid meet">
<metadata>
Created by potrace 1.11, written by Peter Selinger 2001-2013
</metadata>
<g transform="translate(0.000000,366.000000) scale(0.100000,-0.100000)"
fill="#000000" stroke="none">
<path d="M0 1810 l0 -1398 1830 0 1830 0 0 1399 0 1398 -1830 -1 -1830 0 0
-1398z m3460 1 l0 -1199 -1630 0 -1630 0 0 1198 0 1198 1630 0 1630 1 0 -1198z"/>
<path d="M2238 2329 c-163 -22 -280 -145 -283 -298 -3 -100 23 -169 85 -224
45 -41 72 -54 220 -104 170 -57 196 -88 181 -209 -2 -22 -60 -72 -97 -84 -74
-25 -160 -5 -281 64 -26 15 -51 22 -64 19 -20 -5 -89 -100 -89 -122 0 -15 115
-88 178 -112 72 -27 209 -36 284 -19 162 38 266 164 269 326 4 165 -61 237
-286 314 -171 60 -205 86 -205 160 0 71 61 121 148 122 64 1 89 -5 162 -42 79
-40 99 -33 137 45 l28 56 -25 20 c-90 71 -230 105 -362 88z"/>
<path d="M1038 2322 c-17 -3 -18 -37 -18 -543 l0 -539 104 0 104 0 -1 208 -1
207 52 3 c28 2 60 -2 71 -7 10 -6 75 -96 144 -200 69 -104 135 -194 146 -200
11 -6 68 -11 126 -11 l106 0 -136 203 c-76 111 -149 214 -163 229 -29 32 -30
29 23 54 54 25 122 95 148 152 17 36 22 66 22 132 0 73 -4 92 -28 140 -15 30
-44 68 -63 84 -46 38 -135 73 -209 82 -63 7 -397 12 -427 6z m327 -163 c97 -4
163 -35 184 -88 42 -104 -8 -215 -109 -245 -56 -17 -210 -21 -211 -7 0 6 -1
79 -1 161 0 83 1 156 1 164 1 13 52 26 71 20 3 -1 32 -3 65 -5z"/>
</g>
</svg>
